name GIL08_xslow2.mot
datacolumns 153
datarows 4
range 0.63333333 0.65833330
endheader

                time	           pelvis_tx	           pelvis_ty	           pelvis_tz	         pelvis_tilt	         pelvis_list	     pelvis_rotation	       hip_flexion_r	     hip_adduction_r	      hip_rotation_r	        knee_angle_r	       ankle_angle_r	    subtalar_angle_r	         mtp_angle_r	       hip_flexion_l	     hip_adduction_l	      hip_rotation_l	        knee_angle_l	       ankle_angle_l	    subtalar_angle_l	         mtp_angle_l	    lumbar_extension	      lumbar_bending	     lumbar_rotation	     ground_force_vx	     ground_force_vy	     ground_force_vz	     ground_force_px	     ground_force_py	     ground_force_pz	     ground_force_vx	     ground_force_vy	     ground_force_vz	     ground_force_px	     ground_force_py	     ground_force_pz	     ground_torque_x	     ground_torque_y	     ground_torque_z	     ground_torque_x	     ground_torque_y	     ground_torque_z	    ground_marker_px	    ground_marker_py	    ground_marker_pz	    ground_marker_px	    ground_marker_py	    ground_marker_pz	    ground_marker_px	    ground_marker_py	    ground_marker_pz	    ground_marker_px	    ground_marker_py	    ground_marker_pz	    ground_marker_px	    ground_marker_py	    ground_marker_pz	    ground_marker_px	    ground_marker_py	    ground_marker_pz	    ground_marker_px	    ground_marker_py	    ground_marker_pz	    ground_marker_px	    ground_marker_py	    ground_marker_pz	    ground_marker_px	    ground_marker_py	    ground_marker_pz	    ground_marker_px	    ground_marker_py	    ground_marker_pz	    ground_marker_px	    ground_marker_py	    ground_marker_pz	    ground_marker_px	    ground_marker_py	    ground_marker_pz	    ground_marker_px	    ground_marker_py	    ground_marker_pz	    ground_marker_px	    ground_marker_py	    ground_marker_pz	    ground_marker_px	    ground_marker_py	    ground_marker_pz	    ground_marker_px	    ground_marker_py	    ground_marker_pz	    ground_marker_px	    ground_marker_py	    ground_marker_pz	    ground_marker_px	    ground_marker_py	    ground_marker_pz	    ground_marker_px	    ground_marker_py	    ground_marker_pz	    ground_marker_px	    ground_marker_py	    ground_marker_pz	    ground_marker_px	    ground_marker_py	    ground_marker_pz	    ground_marker_px	    ground_marker_py	    ground_marker_pz	    ground_marker_px	    ground_marker_py	    ground_marker_pz	    ground_marker_px	    ground_marker_py	    ground_marker_pz	    ground_marker_px	    ground_marker_py	    ground_marker_pz	    ground_marker_px	    ground_marker_py	    ground_marker_pz	    ground_marker_px	    ground_marker_py	    ground_marker_pz	    ground_marker_px	    ground_marker_py	    ground_marker_pz	    ground_marker_px	    ground_marker_py	    ground_marker_pz	    ground_marker_px	    ground_marker_py	    ground_marker_pz	    ground_marker_px	    ground_marker_py	    ground_marker_pz	    ground_marker_px	    ground_marker_py	    ground_marker_pz	    ground_marker_px	    ground_marker_py	    ground_marker_pz	    ground_marker_px	    ground_marker_py	    ground_marker_pz	    ground_marker_px	    ground_marker_py	    ground_marker_pz	    ground_marker_px	    ground_marker_py	    ground_marker_pz	    ground_marker_px	    ground_marker_py	    ground_marker_pz	
          0.63333333	         -0.63771975	          0.98960447	          0.26326102	          4.81349897	         -1.85241783	         -1.40351212	         14.41778755	          0.32659754	          4.41643095	        -18.47165489	          8.18404007	          0.00000000	          0.00000000	         -5.58245373	         -1.60674560	          7.93216228	        -10.95666695	         10.92678261	          0.00000000	          0.00000000	        -27.71768379	          0.60393918	          0.49417001	          0.00000000	          0.00000000	          0.00000000	         -0.40279987	          0.00000000	          0.33289218	          9.00091882	        576.81540867	         11.09176049	         -0.72943243	          0.00000000	          0.23456581	          0.00000000	          0.00000000	          0.00000000	          0.00000000	         -0.36216901	          0.00000000	         -0.71186990	          0.90718269	          0.26267910	         -0.71692342	          0.89416891	          0.31833899	         -0.71476448	          0.89042556	          0.21185668	         -0.57937139	          0.50023246	          0.33259475	         -0.72004670	          0.47793403	          0.21467385	         -0.57407242	          0.08164120	          0.34627053	         -0.80886412	          0.06842312	          0.23634651	         -0.63771975	          0.98960447	          0.26326102	         -0.63983494	          0.99327207	          0.36758786	         -0.63560450	          0.98593694	          0.15893415	         -0.83817124	          1.01445222	          0.29973006	         -0.83930659	          1.01508284	          0.21553230	         -0.57613665	          0.50350869	          0.39191636	         -0.71062261	          0.47741210	          0.15592723	         -0.59035510	          0.50275910	          0.27677745	         -0.74266368	          0.48254657	          0.26032171	         -0.58090252	          0.08277546	          0.38363445	         -0.80698395	          0.06593139	          0.19697005	         -0.57887357	          0.08935529	          0.31414548	         -0.80316091	          0.07791771	          0.26588064	         -0.74536330	          1.47161901	          0.24141346	         -0.65747434	          1.39530790	          0.32788357	         -0.65492749	          1.39185977	          0.17188779	         -0.66829240	          1.39589870	          0.24567360	         -0.64855307	          1.19188380	          0.24375786	         -0.58334690	          0.60506022	          0.47607565	         -0.57356596	          0.60071802	          0.21332720	         -0.57810068	          0.66955644	          0.40453058	         -0.64065379	          0.66167241	          0.16456783	         -0.55638802	          0.59134614	          0.38293606	         -0.65597540	          0.57566494	          0.17072909	         -0.57388574	          0.16394815	          0.44927675	         -0.68608469	          0.16193148	          0.24841093	         -0.59183037	          0.21851414	          0.38624641	         -0.74057269	          0.22080320	          0.22471362	         -0.45687237	          0.07544255	          0.33649734	         -0.68054968	          0.04162191	          0.24248245	
          0.64166665	         -0.63364327	          0.98914564	          0.26303887	          4.84075642	         -1.85959923	         -1.25863469	         14.54824638	          0.27369225	          4.14721918	        -17.45816612	          7.53355503	          0.00000000	          0.00000000	         -5.82573795	         -1.57453060	          7.94034624	        -11.07024288	         11.21154785	          0.00000000	          0.00000000	        -27.69407272	          0.65131921	          0.40204957	          0.00000000	          0.00000000	          0.00000000	         -0.40217743	          0.00000000	          0.33269128	          9.93083319	        576.75369622	         11.25971582	         -0.72731482	          0.00000000	          0.23455869	          0.00000000	          0.00000000	          0.00000000	          0.00000000	         -0.39604480	          0.00000000	         -0.70777810	          0.90669727	          0.26222318	         -0.71267015	          0.89366829	          0.31829822	         -0.71077836	          0.88994610	          0.21181008	         -0.57401437	          0.50004613	          0.33252388	         -0.71764547	          0.47750428	          0.21476124	         -0.56017703	          0.08167227	          0.34532502	         -0.80876076	          0.06843521	          0.23630396	         -0.63364327	          0.98914564	          0.26303887	         -0.63549656	          0.99279231	          0.36736557	         -0.63178992	          0.98549902	          0.15871218	         -0.83390111	          1.01390660	          0.30002981	         -0.83552974	          1.01456404	          0.21587986	         -0.57091540	          0.50328201	          0.39185494	         -0.70835513	          0.47692907	          0.15599383	         -0.58594799	          0.50234151	          0.27684695	         -0.74034637	          0.48254225	          0.26031670	         -0.56699622	          0.08259020	          0.38269687	         -0.80688465	          0.06594364	          0.19692728	         -0.56522405	          0.08923998	          0.31329349	         -0.80301201	          0.07785728	          0.26580960	         -0.74143732	          1.47110474	          0.24175724	         -0.65342212	          1.39484251	          0.32816425	         -0.65098643	          1.39144754	          0.17211686	         -0.66430086	          1.39545095	          0.24593815	         -0.64438850	          1.19145358	          0.24393977	         -0.57859999	          0.60477144	          0.47609133	         -0.57060057	          0.59975541	          0.21304940	         -0.57354563	          0.66921186	          0.40451548	         -0.63728428	          0.66104025	          0.16445544	         -0.55181432	          0.59097660	          0.38289553	         -0.65317523	          0.57507658	          0.17062472	         -0.56157595	          0.16370817	          0.44852307	         -0.68557531	          0.16121100	          0.24840972	         -0.58057731	          0.21802026	          0.38554382	         -0.73968983	          0.22037365	          0.22470604	         -0.44266006	          0.07656972	          0.33529940	         -0.68057424	          0.04158002	          0.24246281	
          0.64999998	         -0.62953162	          0.98864329	          0.26278856	          4.86465883	         -1.86462855	         -1.10747099	         14.66398239	          0.21097793	          3.89465809	        -16.45892906	          6.82121325	          0.00000000	          0.00000000	         -6.05758047	         -1.53060544	          7.96359682	        -11.20353889	         11.50204945	          0.00000000	          0.00000000	        -27.70741463	          0.71851110	          0.29959446	          0.00000000	          0.00000000	          0.00000000	         -0.40154037	          0.00000000	          0.33250363	         10.86185173	        577.14782000	         11.40040017	         -0.72524835	          0.00000000	          0.23458037	          0.00000000	          0.00000000	          0.00000000	          0.00000000	         -0.42484760	          0.00000000	         -0.70360565	          0.90628666	          0.26163939	         -0.70838141	          0.89312649	          0.31823230	         -0.70676827	          0.88943046	          0.21173865	         -0.56876016	          0.49981570	          0.33245862	         -0.71516335	          0.47705129	          0.21489789	         -0.54663205	          0.08182537	          0.34438157	         -0.80864972	          0.06845740	          0.23627508	         -0.62953162	          0.98864329	          0.26278856	         -0.63111186	          0.99226385	          0.36710966	         -0.62795138	          0.98502278	          0.15846746	         -0.82958621	          1.01333606	          0.30035511	         -0.83180314	          1.01402009	          0.21623620	         -0.56577724	          0.50302088	          0.39179730	         -0.70599836	          0.47641438	          0.15611143	         -0.58155555	          0.50184077	          0.27689773	         -0.73812842	          0.48271969	          0.26022345	         -0.55342901	          0.08253181	          0.38176209	         -0.80676782	          0.06596669	          0.19689862	         -0.55162317	          0.08934693	          0.31235164	         -0.80290681	          0.07782524	          0.26576421	         -0.73742861	          1.47060180	          0.24206057	         -0.64935488	          1.39429641	          0.32844278	         -0.64699906	          1.39100170	          0.17234662	         -0.66027606	          1.39495575	          0.24620007	         -0.64033306	          1.19096291	          0.24405940	         -0.57386369	          0.60443705	          0.47610760	         -0.56758785	          0.59879375	          0.21281970	         -0.56909943	          0.66875666	          0.40451792	         -0.63353217	          0.66048878	          0.16444513	         -0.54728270	          0.59053707	          0.38283947	         -0.65020502	          0.57445180	          0.17057639	         -0.54954493	          0.16357915	          0.44778651	         -0.68503553	          0.16048490	          0.24845862	         -0.56958711	          0.21760421	          0.38488743	         -0.73871797	          0.21992120	          0.22472218	         -0.42876095	          0.07763258	          0.33408201	         -0.68060952	          0.04154053	          0.24246360	
          0.65833330	         -0.62534738	          0.98810309	          0.26253179	          4.88333702	         -1.87230992	         -0.94834310	         14.76130295	          0.14612713	          3.66413403	        -15.46547031	          6.06458139	          0.00000000	          0.00000000	         -6.27619600	         -1.48375082	          8.00576687	        -11.35889149	         11.80047226	          0.00000000	          0.00000000	        -27.76303291	          0.77383554	          0.17439914	          0.00000000	          0.00000000	          0.00000000	         -0.40086938	          0.00000000	          0.33232416	         11.72512810	        578.10418759	         11.47704843	         -0.72317780	          0.00000000	          0.23463293	          0.00000000	          0.00000000	          0.00000000	          0.00000000	         -0.45167163	          0.00000000	         -0.69948786	          0.90574312	          0.26110375	         -0.70402080	          0.89255595	          0.31817359	         -0.70270187	          0.88888288	          0.21167511	         -0.56361222	          0.49954763	          0.33240148	         -0.71256733	          0.47658005	          0.21508658	         -0.53342116	          0.08209679	          0.34345675	         -0.80851948	          0.06849398	          0.23625369	         -0.62534738	          0.98810309	          0.26253179	         -0.62663943	          0.99170125	          0.36685714	         -0.62405539	          0.98450494	          0.15820642	         -0.82523280	          1.01274860	          0.30069733	         -0.82801199	          1.01346064	          0.21659440	         -0.56071538	          0.50273097	          0.39174560	         -0.70351768	          0.47587696	          0.15628301	         -0.57756543	          0.50111765	          0.27716893	         -0.73513687	          0.48205128	          0.26084390	         -0.54019773	          0.08259681	          0.38084427	         -0.80662149	          0.06600533	          0.19687788	         -0.53823268	          0.08964671	          0.31145048	         -0.80279696	          0.07782833	          0.26576009	         -0.73382318	          1.47016418	          0.24231672	         -0.64572912	          1.39373231	          0.32858965	         -0.64343059	          1.39048088	          0.17251955	         -0.65667880	          1.39442325	          0.24636486	         -0.63688159	          1.19041669	          0.24415937	         -0.56910855	          0.60406429	          0.47612396	         -0.56449527	          0.59783858	          0.21265417	         -0.56495130	          0.66828120	          0.40445080	         -0.63102180	          0.65962535	          0.16432025	         -0.54300123	          0.59009433	          0.38277915	         -0.64764744	          0.57372671	          0.17063332	         -0.53781718	          0.16354245	          0.44706181	         -0.68444282	          0.15976141	          0.24855450	         -0.55885321	          0.21730283	          0.38429749	         -0.73786891	          0.21953960	          0.22484010	         -0.41521373	          0.07866814	          0.33285138	         -0.68064034	          0.04150505	          0.24247287	
